<svg width="235" height="47" viewBox="0 0 235 47" fill="none" xmlns="http://www.w3.org/2000/svg">
<path d="M235 0H0V47H235V0Z" fill="#ED2F59"/>
<path d="M144 2H233V45H144V2Z" fill="white"/>
<path d="M22.8 16.8C22.763 12.73 19.47 9.43703 15.4 9.43703C11.33 9.43703 8 12.693 8 16.763V31.6V35.3C11.7 35.3 11.7 31.6 11.7 31.6V26.05H19.1V31.6V35.3C22.8 35.3 22.8 31.6 22.8 31.6V16.8ZM11.7 22.35V16.8C11.7 14.765 13.328 13.137 15.4 13.137C17.435 13.137 19.063 14.765 19.1 16.8V22.35H11.7ZM39.6278 22.276C41.0708 20.907 42.0328 18.983 42.0328 16.8C42.0328 12.73 38.7028 9.40002 34.6328 9.40002H27.2328V35.3C27.2328 35.3 30.9328 35.3 30.9328 31.6V24.2H34.6328C38.3328 24.2 38.3328 27.9 38.3328 27.9V31.6C38.3328 35.3 42.0328 35.3 42.0328 35.3V27.9C42.0328 25.088 40.9228 23.349 39.6278 22.276ZM30.9328 20.5V13.1H34.6328C36.6678 13.1 38.3328 14.765 38.3328 16.8C38.3328 18.872 36.6678 20.5 34.6328 20.5H30.9328ZM46.4655 9.40002V35.3H57.5655C61.2655 35.3 61.2655 31.6 61.2655 31.6H50.1655V13.1C50.1655 9.40003 46.4655 9.40002 46.4655 9.40002ZM73.0983 9.40002C68.9913 9.40002 65.6983 12.73 65.6983 16.8V27.9C65.6983 32.007 68.9913 35.3 73.0983 35.3C77.1683 35.3 80.4983 32.007 80.4983 27.9V16.8C80.4983 12.73 77.1683 9.40002 73.0983 9.40002ZM73.0983 31.6C71.0263 31.6 69.3983 29.972 69.3983 27.9V16.8C69.3983 14.765 71.0263 13.1 73.0983 13.1C75.1333 13.1 76.7983 14.765 76.7983 16.8V27.9C76.7983 29.972 75.1333 31.6 73.0983 31.6ZM96.0311 24.2C96.0311 24.2 99.7311 24.2 99.7311 20.5H88.6311V13.1H96.0311C96.0311 13.1 99.7311 13.1 99.7311 9.40002H84.9311V35.3H99.7311C99.7311 31.6 96.0311 31.6 96.0311 31.6H88.6311V24.2H96.0311ZM111.564 20.5C109.492 20.5 107.864 18.872 107.864 16.8C107.864 14.765 109.492 13.1 111.564 13.1H115.264C115.264 13.1 118.964 13.1 118.964 9.40002H111.564C107.457 9.40002 104.164 12.73 104.164 16.8C104.164 20.907 107.457 24.2 111.564 24.2C113.599 24.2 115.264 25.865 115.264 27.9C115.264 29.972 113.599 31.6 111.564 31.6H107.864C107.864 31.6 104.164 31.6 104.164 35.3H111.564C115.634 35.3 118.964 32.007 118.964 27.9C118.964 23.83 115.634 20.5 111.564 20.5ZM127.097 13.1H128.947V31.6H127.097C127.097 31.6 123.397 31.6 123.397 35.3H138.197C138.197 35.3 138.197 31.6 134.497 31.6H132.647V13.1H134.497C138.197 13.1 138.197 9.40002 138.197 9.40002H123.397C123.397 13.1 127.097 13.1 127.097 13.1Z" fill="white"/>
<path d="M147 9.40002C147 9.40002 147 13.1 150.7 13.1H152.55V35.3C152.55 35.3 156.25 35.3 156.25 31.6V13.1H158.1C158.1 13.1 161.8 13.1 161.8 9.40002H147ZM179.183 16.8C179.146 12.73 175.853 9.43703 171.783 9.43703C167.713 9.43703 164.383 12.693 164.383 16.763V31.6V35.3C168.083 35.3 168.083 31.6 168.083 31.6V26.05H175.483V31.6V35.3C179.183 35.3 179.183 31.6 179.183 31.6V16.8ZM168.083 22.35V16.8C168.083 14.765 169.711 13.137 171.783 13.137C173.818 13.137 175.446 14.765 175.483 16.8V22.35H168.083ZM189.166 20.5C187.094 20.5 185.466 18.872 185.466 16.8C185.466 14.765 187.094 13.1 189.166 13.1H192.866C192.866 13.1 196.566 13.1 196.566 9.40002H189.166C185.059 9.40002 181.766 12.73 181.766 16.8C181.766 20.907 185.059 24.2 189.166 24.2C191.201 24.2 192.866 25.865 192.866 27.9C192.866 29.972 191.201 31.6 189.166 31.6H185.466C185.466 31.6 181.766 31.6 181.766 35.3H189.166C193.236 35.3 196.566 32.007 196.566 27.9C196.566 23.83 193.236 20.5 189.166 20.5ZM213.948 9.40002C210.248 9.40002 210.248 13.1 210.248 13.1V20.5C210.248 24.2 206.548 24.2 206.548 24.2H202.848V13.1C202.848 9.40003 199.148 9.40002 199.148 9.40002V31.637C199.148 35.337 202.848 35.3 202.848 35.3V27.9H206.548C206.548 27.9 210.248 27.9 210.248 31.6C210.248 31.6 210.248 35.3 213.948 35.3V31.6C213.948 31.6 213.911 28.27 211.654 26.05C213.911 23.867 213.948 20.5 213.948 20.5V9.40002Z" fill="#ED2F59"/>
</svg>
